<?xml version="1.0" standalone="no"?>
<!DOCTYPE svg PUBLIC "-//W3C//DTD SVG 20010904//EN"
 "http://www.w3.org/TR/2001/REC-SVG-20010904/DTD/svg10.dtd">
<svg version="1.0" xmlns="http://www.w3.org/2000/svg"
 width="482.000000pt" height="275.000000pt" viewBox="0 0 482.000000 275.000000"
 preserveAspectRatio="xMidYMid meet">

<g transform="translate(0.000000,275.000000) scale(0.100000,-0.100000)"
fill="#000000" stroke="none">
<path d="M0 1375 l0 -1375 2410 0 2410 0 0 1375 0 1375 -2410 0 -2410 0 0
-1375z m2527 1201 c97 -17 172 -54 252 -121 111 -94 185 -263 179 -405 l-3
-75 610 -5 c700 -6 662 -1 765 -100 64 -62 93 -115 111 -207 l12 -63 68 0
c121 0 145 -29 163 -199 6 -50 24 -111 34 -111 4 0 20 -21 36 -46 l29 -45 -18
-40 c-10 -21 -21 -39 -26 -39 -15 0 -51 -92 -55 -142 -6 -73 -24 -148 -35
-148 -5 0 -9 -6 -9 -14 0 -8 -12 -24 -26 -35 -21 -17 -41 -21 -94 -21 -70 0
-80 -6 -80 -50 0 -24 -75 -173 -107 -210 -27 -33 -92 -74 -145 -93 -23 -8
-249 -13 -783 -17 l-750 -5 -69 -34 c-38 -19 -81 -46 -95 -62 -44 -47 -71 -47
-127 2 -27 23 -74 54 -104 68 l-55 26 -755 5 -755 5 -67 33 c-108 53 -177 148
-201 274 l-11 58 -72 0 c-63 0 -76 3 -102 25 -38 32 -50 64 -55 150 -4 75 -36
153 -76 189 -31 28 -27 71 10 107 16 16 32 37 34 47 2 9 11 35 19 57 8 22 15
63 16 92 0 66 13 99 53 137 29 28 39 31 108 34 l75 4 2 36 c3 53 33 130 61
158 13 13 20 24 16 24 -4 0 21 24 55 53 116 97 70 92 756 95 l601 3 -5 48 c-2
27 1 80 8 119 12 74 62 192 80 192 6 0 9 4 6 9 -4 5 -2 11 3 13 4 1 27 25 51
52 79 93 206 162 318 176 37 4 67 8 67 9 0 0 37 -5 82 -13z"/>
<path d="M2295 2472 c-141 -53 -215 -124 -264 -256 -25 -68 -30 -184 -11 -256
41 -154 175 -283 333 -320 53 -12 154 -13 161 -1 3 5 -59 34 -138 65 -132 52
-173 78 -148 95 5 3 16 35 26 71 10 36 27 92 37 125 26 79 138 305 152 305 6
0 32 19 57 43 l45 42 -38 -40 c-44 -48 -45 -59 -12 -81 20 -13 23 -19 14 -30
-8 -9 -8 -14 -1 -14 6 0 14 5 17 10 4 6 23 -2 47 -21 31 -25 39 -37 35 -56 -2
-12 0 -23 4 -23 5 0 9 9 9 20 0 27 2 27 68 -16 2 -1 -10 -28 -26 -60 -42 -83
-91 -235 -98 -302 -8 -81 -14 -108 -22 -95 -8 12 -150 63 -176 63 -8 0 -41 11
-73 26 -32 14 -52 19 -46 13 15 -15 265 -118 304 -126 17 -3 47 5 82 22 215
101 299 365 187 586 -36 70 -117 146 -198 186 -70 35 -83 38 -176 40 -79 3
-112 -1 -151 -15z m254 -185 c-20 -19 -24 -22 -11 -6 14 16 22 39 23 65 l1 39
11 -33 c10 -31 8 -36 -24 -65z m-329 -114 c-51 -87 -103 -175 -116 -195 -13
-21 -24 -41 -24 -45 1 -12 179 263 221 342 l38 70 7 -33 c6 -31 9 -33 35 -28
35 7 35 5 5 -42 -64 -102 -143 -292 -160 -386 l-7 -39 -32 30 c-18 17 -43 37
-57 46 l-24 17 27 0 c21 0 33 -8 49 -35 27 -47 32 -40 12 18 -17 50 -23 53
-73 36 -62 -22 -57 1 35 157 48 82 101 175 117 208 17 32 33 53 35 47 2 -5
-38 -81 -88 -168z m415 100 c-4 -32 -12 -62 -17 -68 -7 -7 -9 1 -4 24 3 18 6
49 6 67 0 19 5 34 11 34 7 0 8 -19 4 -57z m-68 -30 c-3 -10 -5 -4 -5 12 0 17
2 24 5 18 2 -7 2 -21 0 -30z m-494 -334 c33 -17 127 -111 127 -127 0 -8 -21 8
-47 35 -27 27 -64 61 -83 75 -36 28 -35 36 3 17z"/>
<path d="M2380 2145 c-13 -16 -6 -50 9 -41 10 6 71 -22 83 -39 5 -6 12 -4 18
5 14 21 12 30 -5 30 -9 0 -12 6 -8 16 5 14 3 15 -15 5 -15 -8 -22 -8 -22 -1 0
5 -7 10 -15 10 -8 0 -15 7 -15 15 0 19 -14 19 -30 0z m20 -15 c0 -5 -5 -10
-11 -10 -5 0 -7 5 -4 10 3 6 8 10 11 10 2 0 4 -4 4 -10z"/>
<path d="M2513 2074 c-6 -16 14 -37 28 -28 4 2 9 0 11 -5 5 -14 40 -17 45 -4
2 7 -14 21 -37 33 -36 19 -41 19 -47 4z"/>
<path d="M2326 2065 c-9 -24 -7 -37 4 -30 6 3 10 0 10 -7 0 -12 67 -48 89 -48
5 0 14 -7 21 -15 18 -22 32 -18 25 6 -8 25 -35 54 -52 55 -30 2 -34 5 -28 14
3 5 0 7 -8 4 -8 -3 -24 4 -35 16 -17 19 -20 19 -26 5z"/>
<path d="M2504 1975 c-8 -19 8 -36 48 -53 21 -9 27 -8 32 4 8 21 8 21 -10 28
-9 4 -24 1 -32 -6 -13 -10 -14 -10 -8 0 4 7 0 19 -8 28 -15 14 -17 14 -22 -1z"/>
<path d="M2299 1968 c-1 -7 -1 -16 0 -20 0 -5 -4 -8 -11 -8 -12 0 -2 -15 10
-15 4 -1 17 -7 30 -14 13 -7 30 -10 38 -7 8 3 12 2 9 -3 -3 -5 11 -15 30 -22
19 -7 35 -20 35 -29 0 -12 2 -12 9 -1 6 9 11 10 15 2 4 -6 11 -9 16 -6 5 3 11
1 15 -5 4 -6 11 -8 16 -5 5 4 9 0 9 -7 1 -7 7 -2 15 12 17 30 19 48 4 33 -8
-8 -18 -8 -36 0 -18 8 -20 13 -11 20 9 6 8 7 -5 3 -18 -6 -67 12 -67 24 0 4
-10 6 -22 6 -14 -1 -22 4 -20 12 1 8 -5 13 -15 12 -39 -4 -52 0 -47 15 4 8 1
15 -5 15 -6 0 -12 -6 -12 -12z"/>
<path d="M684 1864 c-61 -22 -118 -75 -143 -135 -19 -43 -28 -103 -31 -201 0
-5 -40 -8 -89 -8 -49 0 -101 -4 -115 -10 -24 -9 -26 -14 -26 -69 0 -68 -29
-158 -68 -210 -24 -33 -24 -35 -8 -60 45 -68 68 -135 75 -213 9 -103 15 -108
136 -108 l92 0 6 -74 c11 -125 61 -209 154 -256 l48 -25 745 -5 c580 -5 754
-9 785 -19 60 -20 115 -50 161 -87 l41 -33 23 23 c12 14 48 38 79 55 114 61
116 61 897 61 l711 0 60 30 c96 48 143 127 143 240 0 91 -1 90 105 90 119 0
125 2 125 52 0 63 30 164 66 224 l34 56 -24 29 c-35 41 -67 133 -73 212 -8 91
-20 99 -140 96 l-88 -2 -6 79 c-3 43 -13 96 -21 116 -27 61 -93 125 -154 148
-53 19 -76 20 -657 20 l-602 0 -30 -57 c-41 -79 -142 -183 -212 -221 -161 -85
-335 -88 -488 -9 -80 42 -184 146 -224 225 l-31 62 -608 -1 c-505 0 -614 -3
-648 -15z m3203 -112 c-5 -45 -87 -222 -118 -256 -42 -44 -60 -120 -43 -183 6
-21 7 -22 33 -5 34 22 60 42 85 67 45 44 140 96 208 115 41 11 51 10 85 -6 21
-11 37 -23 37 -29 -1 -5 7 -21 17 -34 40 -51 15 -140 -52 -185 -84 -56 -152
-60 -203 -12 -31 29 -36 39 -36 81 l0 47 -51 -46 c-103 -92 -180 -83 -213 26
-7 25 -24 14 -81 -52 -80 -92 -119 -108 -168 -70 -42 33 -44 77 -9 147 61 119
188 189 241 132 l19 -21 21 57 c28 74 55 126 107 207 51 78 68 90 102 75 21
-10 24 -16 19 -55z m-2157 -52 c17 -32 15 -84 -6 -121 -10 -19 -38 -67 -61
-106 -57 -97 -71 -149 -53 -203 10 -29 10 -44 2 -52 -16 -16 -61 -1 -95 33
-44 45 -36 97 38 230 78 140 88 160 84 164 -16 16 -257 -202 -299 -270 -35
-56 -109 -70 -111 -22 -2 40 1 52 47 140 25 49 43 91 40 94 -7 7 -61 -21 -114
-59 -84 -62 -145 -123 -219 -223 -97 -130 -133 -153 -170 -108 -16 20 -6 49
94 251 47 95 84 175 81 177 -8 9 -140 -45 -193 -78 -27 -17 -59 -42 -70 -55
-23 -27 -52 -27 -69 0 -13 21 11 50 57 69 18 7 70 30 116 51 102 47 191 73
223 65 13 -4 30 -18 38 -32 15 -28 14 -32 -66 -173 -20 -35 -34 -65 -32 -67 2
-3 53 45 114 105 112 113 203 180 246 180 39 0 68 -27 68 -63 -1 -23 -24 -112
-30 -112 0 0 37 36 83 80 46 44 104 90 128 102 57 29 114 30 129 3z m518 -205
c26 -33 46 -82 38 -97 -3 -7 -22 -35 -41 -62 -58 -80 -43 -95 49 -50 29 14 69
41 90 60 44 40 52 42 59 12 5 -17 -4 -31 -41 -65 -25 -24 -50 -43 -54 -43 -3
0 -13 -6 -20 -13 -25 -24 -81 -45 -111 -41 -43 5 -77 41 -77 81 0 18 12 57 27
87 15 31 24 58 21 62 -8 7 -92 -47 -198 -127 -89 -67 -142 -89 -212 -89 -47 0
-54 3 -89 41 l-37 40 24 55 c13 30 34 68 45 84 59 78 249 89 224 12 -3 -12
-40 -42 -82 -67 -41 -25 -82 -53 -90 -61 -8 -8 -19 -14 -24 -14 -11 0 -12 -27
-1 -34 27 -16 186 56 260 119 17 14 33 25 36 25 4 0 32 19 63 43 103 76 112
79 141 42z m502 -15 c26 -41 -2 -78 -47 -63 -40 14 -84 -1 -127 -43 -64 -62
-71 -114 -17 -114 33 0 164 61 236 109 55 37 65 38 65 8 0 -21 -57 -87 -75
-87 -3 0 -24 -12 -48 -27 -23 -15 -65 -38 -94 -49 -65 -28 -122 -18 -166 27
-24 25 -27 35 -21 62 15 73 77 146 147 176 50 21 134 22 147 1z m396 -19 c10
-19 13 -20 20 -8 5 9 21 18 36 22 21 5 29 2 37 -14 9 -16 7 -30 -9 -65 -20
-45 -26 -86 -13 -86 4 0 28 18 54 40 59 49 74 51 65 8 -7 -37 -70 -100 -115
-116 -42 -15 -73 4 -84 51 -8 32 -27 53 -27 28 0 -5 -15 -19 -32 -30 -18 -12
-55 -37 -82 -56 -31 -22 -60 -35 -80 -35 -37 0 -49 7 -66 39 -25 48 10 121 91
184 87 68 182 86 205 38z m-2609 -193 c27 -26 31 -77 7 -113 -49 -75 -167 -29
-150 58 14 72 93 102 143 55z m3952 1 c25 -27 31 -61 15 -97 -24 -58 -106 -73
-143 -26 -31 39 -25 78 17 127 22 25 86 23 111 -4z m-2476 -132 c72 -23 127
-62 127 -91 0 -28 -41 -66 -91 -85 -19 -7 -42 -16 -52 -20 -15 -5 -5 -12 40
-30 100 -41 153 -94 153 -153 0 -84 -167 -155 -420 -178 -227 -20 -312 57
-136 124 l46 18 -25 32 c-31 41 -31 56 0 106 14 22 25 43 25 47 0 3 7 14 15
23 14 15 96 172 92 176 -1 0 -50 -2 -108 -6 -88 -6 -111 -11 -137 -30 -26 -19
-34 -21 -47 -10 -8 7 -15 18 -15 25 0 25 51 55 94 56 22 1 55 5 71 9 53 12
316 3 368 -13z m-1032 -37 c32 -18 20 -121 -25 -208 -20 -39 -20 -56 0 -98 14
-30 18 -32 38 -22 11 6 38 26 58 44 62 55 115 78 184 79 57 0 64 -2 99 -37 67
-65 43 -132 -57 -159 -73 -19 -168 27 -168 81 0 20 -3 19 -41 -13 -22 -19 -52
-37 -66 -40 -39 -7 -85 9 -111 40 l-22 28 -48 -52 c-41 -45 -54 -53 -84 -53
-21 0 -46 9 -63 22 -24 19 -27 26 -23 63 6 51 41 101 81 115 40 13 90 13 105
-2 14 -14 18 -3 25 57 4 39 39 127 59 153 13 15 33 15 59 2z m1933 -109 c21
-23 18 -49 -6 -65 -25 -15 -52 4 -56 39 -6 44 32 59 62 26z m332 -69 c14 -9
54 -87 54 -105 0 -8 -9 -22 -21 -33 -22 -20 -59 -85 -59 -104 0 -28 115 27
186 89 38 33 152 115 210 151 18 11 28 12 41 4 19 -11 63 -81 63 -100 0 -6
-15 -31 -34 -55 -45 -59 -54 -89 -27 -89 34 0 105 38 162 87 76 65 151 111
213 132 47 15 59 16 100 4 29 -9 46 -19 46 -29 0 -9 9 -27 20 -41 44 -56 12
-140 -72 -190 -70 -43 -107 -49 -151 -28 -56 26 -72 50 -71 106 1 56 6 56 -71
-12 -127 -112 -218 -129 -260 -49 -16 31 -13 44 42 168 3 6 1 12 -4 12 -13 0
-144 -85 -183 -119 -78 -69 -151 -111 -193 -111 -84 0 -110 67 -62 162 26 52
30 68 17 68 -13 0 -158 -96 -227 -150 -66 -53 -101 -70 -141 -70 -47 0 -65 89
-32 157 6 13 9 25 7 27 -11 11 -92 -37 -131 -77 -99 -103 -188 -108 -188 -11
0 13 -3 24 -6 24 -3 0 -27 -17 -53 -39 -139 -115 -211 -122 -236 -21 -9 39 47
116 122 167 88 58 173 69 188 23 6 -19 6 -19 26 1 22 22 40 24 57 7 17 -17 15
-38 -8 -83 -41 -80 -18 -98 45 -35 22 21 44 39 49 40 5 0 24 11 42 25 18 14
36 25 39 25 3 0 22 12 41 26 31 24 37 25 64 14 36 -15 42 -33 29 -85 -25 -101
-22 -114 19 -88 86 53 199 130 249 169 55 43 77 51 99 36z m-2009 -282 c213
-10 257 -16 246 -33 -11 -18 -751 8 -770 27 -4 4 -1 12 7 17 15 11 110 9 517
-11z"/>
<path d="M3815 1678 c-10 -18 -24 -41 -32 -50 -8 -9 -13 -22 -11 -28 2 -6 18
14 37 45 19 30 31 58 28 61 -3 3 -13 -9 -22 -28z"/>
<path d="M3527 1409 c-65 -34 -129 -149 -83 -149 21 0 100 69 141 123 l36 47
-28 0 c-15 -1 -45 -10 -66 -21z"/>
<path d="M4070 1409 c-54 -24 -77 -53 -86 -106 -4 -30 -2 -44 11 -56 24 -25
37 -21 87 23 52 46 68 85 42 105 -11 8 -15 20 -11 34 3 11 4 21 4 20 -1 0 -22
-9 -47 -20z"/>
<path d="M1804 1421 c-34 -21 -49 -39 -40 -48 6 -6 82 43 92 59 9 15 -20 8
-52 -11z"/>
<path d="M3042 1399 c-41 -12 -122 -91 -122 -119 0 -11 3 -20 8 -20 28 1 202
125 202 145 0 8 -52 4 -88 -6z"/>
<path d="M1855 1087 c4 -8 -7 -42 -24 -75 l-31 -61 28 15 c15 7 37 14 48 14
35 0 150 39 175 58 l22 19 -44 18 c-24 9 -74 20 -112 23 -58 4 -67 3 -62 -11z"/>
<path d="M1746 843 c-21 -43 -42 -86 -47 -95 -5 -10 -8 -18 -6 -18 2 0 46 14
97 30 52 17 123 33 157 37 54 5 63 3 69 -12 13 -32 -10 -50 -59 -47 -53 3
-164 -18 -248 -49 -50 -18 -58 -24 -43 -32 32 -18 117 -13 254 14 64 13 189
68 209 93 35 43 -87 100 -273 126 -33 5 -62 14 -66 20 -3 6 -23 -25 -44 -67z"/>
<path d="M955 1024 c-4 -10 -11 -27 -16 -37 -6 -11 -8 -21 -5 -25 3 -3 13 12
21 33 9 20 14 40 11 43 -3 2 -8 -4 -11 -14z"/>
<path d="M781 834 c-40 -17 -60 -41 -61 -71 0 -40 20 -35 71 15 68 68 65 89
-10 56z"/>
<path d="M1235 838 c-33 -8 -45 -23 -45 -59 0 -52 59 -67 98 -26 28 29 28 41
-1 70 -19 18 -30 21 -52 15z"/>
<path d="M4085 829 c-58 -16 -106 -89 -96 -144 8 -42 45 -45 93 -8 55 42 72
90 43 119 -8 8 -12 21 -9 29 4 8 5 15 3 14 -2 0 -18 -5 -34 -10z"/>
<path d="M2375 801 c-63 -29 -131 -108 -110 -129 10 -10 112 48 162 92 40 35
43 41 27 47 -28 11 -35 10 -79 -10z"/>
</g>
</svg>
